<?xml version="1.0" standalone="no"?>
<!DOCTYPE svg PUBLIC "-//W3C//DTD SVG 20010904//EN"
 "http://www.w3.org/TR/2001/REC-SVG-20010904/DTD/svg10.dtd">
<svg version="1.0" xmlns="http://www.w3.org/2000/svg"
 width="294.000000pt" height="294.000000pt" viewBox="0 0 294.000000 294.000000"
 preserveAspectRatio="xMidYMid meet">
<metadata>
Created by potrace 1.11, written by Peter Selinger 2001-2013
</metadata>
<g transform="translate(0.000000,294.000000) scale(0.100000,-0.100000)"
fill="#000000" stroke="none">
<path d="M2020 2742 c-35 -59 -67 -109 -71 -112 -3 -3 -12 -16 -19 -30 -7 -14
-33 -55 -56 -92 -24 -37 -44 -69 -44 -72 0 -7 118 -86 129 -86 5 0 14 -6 20
-14 9 -10 2 -28 -31 -77 -24 -35 -50 -77 -58 -93 -8 -16 -20 -30 -26 -33 -7
-2 -98 45 -204 106 -105 61 -197 111 -203 111 -7 0 -106 -54 -220 -120 -115
-66 -212 -120 -215 -119 -4 0 -36 34 -72 74 -47 54 -64 80 -62 97 15 104 13
148 -9 188 -71 126 -249 133 -333 13 -22 -32 -30 -55 -32 -100 -3 -70 20 -119
79 -167 37 -29 43 -31 129 -31 l90 0 34 -38 c19 -21 32 -43 28 -49 -4 -6 -3
-8 3 -5 6 4 20 -4 32 -17 l22 -24 -188 -107 c-103 -60 -205 -118 -225 -131
l-37 -23 0 -560 0 -559 102 -60 c56 -33 120 -70 142 -82 22 -12 45 -26 50 -30
6 -4 35 -21 65 -37 30 -17 152 -86 270 -155 118 -69 245 -141 282 -162 l67
-37 203 117 c112 65 329 190 483 279 l280 161 3 341 2 342 -440 -1 -440 0 -1
-41 c0 -23 -1 -96 -1 -162 l1 -120 132 -1 c80 -1 134 -5 136 -11 7 -19 -112
-128 -169 -156 -161 -81 -350 -52 -483 74 -207 196 -158 541 95 673 173 91
381 53 513 -93 l42 -48 308 0 307 -1 0 167 0 166 -93 54 c-50 29 -158 91 -239
138 l-147 84 61 97 c33 53 62 99 64 101 1 1 42 -20 89 -49 48 -29 90 -48 94
-43 3 5 51 81 105 169 55 87 112 178 127 202 l28 42 -42 28 c-23 15 -47 29
-52 32 -6 3 -80 49 -166 103 -85 53 -160 97 -165 97 -5 0 -38 -48 -74 -108z"/>
</g>
</svg>
